# xmcd CD database file
#
# Track frame offsets:
#	150
#	20028
#	38658
#	60533
#	79553
#	91658
#	110159
#	125394
#	143582
#	159985
#	172903
#	184534
#	199369
#	217376
#	247135
#	274759
#
# Disc length: 3926 seconds
#
# Revision: 0
# Processed by: cddbd v1.5.2PL0 Copyright (c) Steve Scherf et al.
# Submitted via: CDex 1.70beta1
#
DISCID=de0f5410
DTITLE=Various Artist - A Tribute to Townes Van Zandt: Poet
DYEAR=2009
DGENRE=Country
TTITLE0=Marie - Willie Nelson
TTITLE1=Tower Song - Nanci Griffith
TTITLE2=My Proud Mountains - John T. Van Zandt
TTITLE3=To Live Is To Fly - Guy Clark
TTITLE4=White Freightliner Blues - Billy Joe Shaver
TTITLE5=Pancho and Lefty - Delbert McClinton
TTITLE6=Mr. Mudd and Mr. Gold - Robert Earl Keen
TTITLE7=Nothin - Lucinda Williams
TTITLE8=If I Needed You - Ray Benson
TTITLE9=A Song For - Jonell Mosser
TTITLE10=Snake Song - Emmylou Harris
TTITLE11=Blue Wind Blew - The Flatlanders
TTITLE12=Loretta - John Prine
TTITLE13=Waitin' Around To Die - Rocky Hill
TTITLE14=Highway Kind - Cowboy Junkies
TTITLE15=Two Girls - Steve Earle and The Dukes
EXTD=YEAR: 2009
EXTT0=
EXTT1=
EXTT2=
EXTT3=
EXTT4=
EXTT5=
EXTT6=
EXTT7=
EXTT8=
EXTT9=
EXTT10=
EXTT11=
EXTT12=
EXTT13=
EXTT14=
EXTT15=
PLAYORDER=
